<svg width="48" height="48" viewBox="0 0 48 48" fill="none" xmlns="http://www.w3.org/2000/svg">
<rect width="48" height="48" rx="12" fill="#0821CB"/>
<circle cx="24" cy="24" r="17.5" stroke="#E8F3FF"/>
<path d="M23.9724 35.32C21.9457 35.32 20.1964 34.9893 18.7244 34.328C17.2737 33.6453 16.143 32.664 15.3324 31.384C14.543 30.0827 14.1057 28.504 14.0204 26.648C13.999 25.7307 13.9884 24.76 13.9884 23.736C13.9884 22.6907 13.999 21.6987 14.0204 20.76C14.1057 18.9467 14.5537 17.4107 15.3644 16.152C16.175 14.8933 17.3164 13.9333 18.7884 13.272C20.2604 12.6107 21.9884 12.28 23.9724 12.28C25.5724 12.28 26.991 12.4827 28.2284 12.888C29.4657 13.272 30.5004 13.7947 31.3324 14.456C32.1857 15.1173 32.8257 15.8427 33.2524 16.632C33.7004 17.4213 33.935 18.2 33.9564 18.968C33.9777 19.16 33.9137 19.32 33.7644 19.448C33.6364 19.576 33.4764 19.64 33.2844 19.64H28.6124C28.3777 19.64 28.1964 19.608 28.0684 19.544C27.9617 19.4587 27.8657 19.3413 27.7804 19.192C27.631 18.872 27.407 18.5413 27.1084 18.2C26.831 17.8373 26.4364 17.528 25.9244 17.272C25.4337 17.016 24.783 16.888 23.9724 16.888C22.7564 16.888 21.7964 17.208 21.0924 17.848C20.4097 18.488 20.0364 19.512 19.9724 20.92C19.9084 22.7547 19.9084 24.6107 19.9724 26.488C20.0364 27.9813 20.431 29.0587 21.1564 29.72C21.8817 30.3813 22.8417 30.712 24.0364 30.712C24.847 30.712 25.5617 30.5733 26.1804 30.296C26.8204 30.0187 27.3217 29.592 27.6844 29.016C28.047 28.4187 28.2284 27.6613 28.2284 26.744V26.136H25.2204C24.9857 26.136 24.783 26.0613 24.6124 25.912C24.463 25.7413 24.3884 25.5387 24.3884 25.304V22.936C24.3884 22.7013 24.463 22.5093 24.6124 22.36C24.783 22.1893 24.9857 22.104 25.2204 22.104H33.2844C33.519 22.104 33.711 22.1893 33.8604 22.36C34.0097 22.5093 34.0844 22.7013 34.0844 22.936V26.584C34.0844 28.4187 33.6684 29.9867 32.8364 31.288C32.0044 32.5893 30.8204 33.592 29.2844 34.296C27.7697 34.9787 25.999 35.32 23.9724 35.32Z" fill="#F9D403"/>
</svg>
